<?xml version="1.0" encoding="iso-8859-1"?>
<!-- Generator: Adobe Illustrator 19.0.0, SVG Export Plug-In . SVG Version: 6.00 Build 0)  -->
<svg version="1.1" id="Layer_1" xmlns="http://www.w3.org/2000/svg" xmlns:xlink="http://www.w3.org/1999/xlink" x="0px" y="0px"
	 viewBox="0 0 512 512" style="enable-background:new 0 0 512 512;" xml:space="preserve">
<path style="fill:#CCD1D9;" d="M501.344,245.328H10.688C4.781,245.328,0,250.109,0,256c0,5.891,4.781,10.672,10.688,10.672h490.656
	c5.875,0,10.656-4.781,10.656-10.672S507.219,245.328,501.344,245.328z"/>
<path style="fill:#F6BB42;" d="M128,352c-52.938,0-96-43.062-96-96s43.062-96,96-96s96,43.062,96,96S180.938,352,128,352z"/>
<path style="fill:#FFCE54;" d="M128,192c-35.344,0-64,28.656-64,64c0,5.891,4.781,10.672,10.688,10.672
	c5.875,0,10.656-4.781,10.656-10.672c0-23.516,19.125-42.672,42.656-42.672c5.906,0,10.688-4.781,10.688-10.656
	C138.688,196.766,133.906,192,128,192z"/>
<path style="fill:#F6BB42;" d="M384,352c-52.938,0-96-43.062-96-96s43.062-96,96-96s96,43.062,96,96S436.938,352,384,352z"/>
<g>
	<path style="fill:#E6E9ED;" d="M128,149.328c-58.906,0-106.656,47.75-106.656,106.672S69.094,362.672,128,362.672
		S234.688,314.922,234.688,256S186.906,149.328,128,149.328z M188.344,316.328c-16.125,16.125-37.531,25-60.344,25
		c-22.781,0-44.219-8.875-60.344-25C51.562,300.219,42.688,278.797,42.688,256s8.875-44.234,24.969-60.328
		c16.125-16.125,37.562-25,60.344-25c22.812,0,44.219,8.875,60.344,25c16.125,16.094,25,37.531,25,60.328
		S204.469,300.219,188.344,316.328z"/>
	<path style="fill:#E6E9ED;" d="M384,149.328c-58.906,0-106.656,47.75-106.656,106.672S325.094,362.672,384,362.672
		S490.688,314.922,490.688,256S442.906,149.328,384,149.328z M444.344,316.328c-16.125,16.125-37.531,25-60.344,25
		c-22.781,0-44.219-8.875-60.344-25c-16.094-16.109-24.969-37.531-24.969-60.328s8.875-44.234,24.969-60.328
		c16.125-16.125,37.562-25,60.344-25c22.812,0,44.219,8.875,60.344,25c16.125,16.094,25,37.531,25,60.328
		S460.469,300.219,444.344,316.328z"/>
</g>
<path style="fill:#FFCE54;" d="M384,192c-35.344,0-64,28.656-64,64c0,5.891,4.781,10.672,10.688,10.672
	c5.875,0,10.656-4.781,10.656-10.672c0-23.516,19.125-42.672,42.656-42.672c5.906,0,10.688-4.781,10.688-10.656
	C394.688,196.766,389.906,192,384,192z"/>
<g>
</g>
<g>
</g>
<g>
</g>
<g>
</g>
<g>
</g>
<g>
</g>
<g>
</g>
<g>
</g>
<g>
</g>
<g>
</g>
<g>
</g>
<g>
</g>
<g>
</g>
<g>
</g>
<g>
</g>
</svg>
